<svg width="178" height="171" viewBox="0 0 178 171" fill="none" xmlns="http://www.w3.org/2000/svg">
<circle cx="88.5" cy="85.5" r="76" fill="#EEEFFF"/>
<path d="M88.5 9.5C106.596 9.5 124.098 15.9568 137.858 27.7092C151.618 39.4615 160.734 55.7379 163.564 73.611C166.395 91.484 162.756 109.781 153.301 125.21C143.846 140.639 129.195 152.188 111.985 157.78C94.7751 163.372 76.1344 162.64 59.416 155.715C42.6977 148.79 28.9988 136.127 20.7835 120.003C12.5682 103.88 10.3755 85.354 14.5999 67.7581C18.8243 50.1623 29.1885 34.6512 43.8283 24.0147L88.5 85.5V9.5Z" fill="#DDDEED"/>
<path d="M88.5 9.5C103.531 9.5 118.225 13.9573 130.723 22.3083C143.221 30.6593 152.963 42.5289 158.715 56.4161C164.467 70.3032 165.972 85.5843 163.04 100.327C160.107 115.069 152.869 128.611 142.24 139.24C131.611 149.869 118.069 157.107 103.327 160.04C88.5843 162.972 73.3032 161.467 59.4161 155.715C45.5289 149.963 33.6593 140.221 25.3083 127.723C16.9573 115.225 12.5 100.531 12.5 85.5H88.5V9.5Z" fill="#37437D"/>
<path d="M88.5 9.5C106.852 9.5 124.583 16.1403 138.421 28.1945C152.258 40.2488 161.267 56.9028 163.782 75.0811C166.298 93.2594 162.152 111.734 152.108 127.093C142.065 142.453 126.803 153.659 109.141 158.643L88.5 85.5V9.5Z" fill="#F26CF9"/>
<ellipse cx="88" cy="85.5" rx="62.5" ry="63" fill="white"/>
<ellipse cx="88" cy="85.5" rx="57.5" ry="58" fill="#F7F7F7"/>
<path d="M46.9018 64.7102V63.7727H53.4473V64.7102H50.7029V72.5H49.6461V64.7102H46.9018ZM56.6518 72.6364C56.0609 72.6364 55.5424 72.4957 55.0964 72.2145C54.6532 71.9332 54.3066 71.5398 54.0566 71.0341C53.8095 70.5284 53.6859 69.9375 53.6859 69.2614C53.6859 68.5795 53.8095 67.9844 54.0566 67.4759C54.3066 66.9673 54.6532 66.5724 55.0964 66.2912C55.5424 66.0099 56.0609 65.8693 56.6518 65.8693C57.2427 65.8693 57.7598 66.0099 58.2029 66.2912C58.649 66.5724 58.9956 66.9673 59.2427 67.4759C59.4927 67.9844 59.6177 68.5795 59.6177 69.2614C59.6177 69.9375 59.4927 70.5284 59.2427 71.0341C58.9956 71.5398 58.649 71.9332 58.2029 72.2145C57.7598 72.4957 57.2427 72.6364 56.6518 72.6364ZM56.6518 71.733C57.1007 71.733 57.47 71.6179 57.7598 71.3878C58.0495 71.1577 58.264 70.8551 58.4032 70.4801C58.5424 70.1051 58.612 69.6989 58.612 69.2614C58.612 68.8239 58.5424 68.4162 58.4032 68.0384C58.264 67.6605 58.0495 67.3551 57.7598 67.1222C57.47 66.8892 57.1007 66.7727 56.6518 66.7727C56.2029 66.7727 55.8336 66.8892 55.5439 67.1222C55.2541 67.3551 55.0396 67.6605 54.9004 68.0384C54.7612 68.4162 54.6916 68.8239 54.6916 69.2614C54.6916 69.6989 54.7612 70.1051 54.9004 70.4801C55.0396 70.8551 55.2541 71.1577 55.5439 71.3878C55.8336 71.6179 56.2029 71.733 56.6518 71.733ZM63.9995 65.9545V66.8068H60.6074V65.9545H63.9995ZM61.5961 64.3864H62.6017V70.625C62.6017 70.9091 62.6429 71.1222 62.7253 71.2642C62.8105 71.4034 62.9185 71.4972 63.0492 71.5455C63.1827 71.5909 63.3233 71.6136 63.4711 71.6136C63.5819 71.6136 63.6728 71.608 63.7438 71.5966C63.8148 71.5824 63.8716 71.571 63.9142 71.5625L64.1188 72.4659C64.0506 72.4915 63.9554 72.517 63.8333 72.5426C63.7111 72.571 63.5563 72.5852 63.3688 72.5852C63.0847 72.5852 62.8063 72.5241 62.5336 72.402C62.2637 72.2798 62.0392 72.0938 61.8603 71.8438C61.6841 71.5938 61.5961 71.2784 61.5961 70.8977V64.3864ZM67.4384 72.6534C67.0236 72.6534 66.6472 72.5753 66.3091 72.419C65.9711 72.2599 65.7026 72.0312 65.5037 71.733C65.3049 71.4318 65.2054 71.0682 65.2054 70.642C65.2054 70.267 65.2793 69.9631 65.427 69.7301C65.5748 69.4943 65.7722 69.3097 66.0194 69.1761C66.2665 69.0426 66.5392 68.9432 66.8375 68.8778C67.1387 68.8097 67.4412 68.7557 67.7452 68.7159C68.1429 68.6648 68.4654 68.6264 68.7125 68.6009C68.9625 68.5724 69.1444 68.5256 69.258 68.4602C69.3745 68.3949 69.4327 68.2812 69.4327 68.1193V68.0852C69.4327 67.6648 69.3176 67.3381 69.0875 67.1051C68.8603 66.8722 68.5151 66.7557 68.052 66.7557C67.5719 66.7557 67.1955 66.8608 66.9228 67.071C66.65 67.2812 66.4583 67.5057 66.3475 67.7443L65.3929 67.4034C65.5634 67.0057 65.7907 66.696 66.0748 66.4744C66.3617 66.25 66.6742 66.0937 67.0123 66.0057C67.3532 65.9148 67.6884 65.8693 68.0179 65.8693C68.2282 65.8693 68.4696 65.8949 68.7424 65.946C69.0179 65.9943 69.2836 66.0952 69.5392 66.2486C69.7978 66.402 70.0123 66.6335 70.1827 66.9432C70.3532 67.2528 70.4384 67.6676 70.4384 68.1875V72.5H69.4327V71.6136H69.3816C69.3134 71.7557 69.1998 71.9077 69.0407 72.0696C68.8816 72.2315 68.6699 72.3693 68.4057 72.483C68.1415 72.5966 67.8191 72.6534 67.4384 72.6534ZM67.5918 71.75C67.9895 71.75 68.3248 71.6719 68.5975 71.5156C68.873 71.3594 69.0804 71.1577 69.2196 70.9105C69.3617 70.6634 69.4327 70.4034 69.4327 70.1307V69.2102C69.3901 69.2614 69.2963 69.3082 69.1515 69.3509C69.0094 69.3906 68.8446 69.4261 68.6571 69.4574C68.4725 69.4858 68.2921 69.5114 68.1159 69.5341C67.9426 69.554 67.802 69.571 67.6941 69.5852C67.4327 69.6193 67.1884 69.6747 66.9611 69.7514C66.7367 69.8253 66.5549 69.9375 66.4157 70.0881C66.2793 70.2358 66.2111 70.4375 66.2111 70.6932C66.2111 71.0426 66.3404 71.3068 66.5989 71.4858C66.8603 71.6619 67.1912 71.75 67.5918 71.75ZM73.2797 63.7727V72.5H72.274V63.7727H73.2797ZM78.633 72.5V63.7727H81.6841C82.2921 63.7727 82.7935 63.8778 83.1884 64.0881C83.5833 64.2955 83.8773 64.5753 84.0705 64.9276C84.2637 65.277 84.3603 65.6648 84.3603 66.0909C84.3603 66.4659 84.2935 66.7756 84.16 67.0199C84.0293 67.2642 83.856 67.4574 83.6401 67.5994C83.427 67.7415 83.1955 67.8466 82.9455 67.9148V68C83.2125 68.017 83.481 68.1108 83.7509 68.2812C84.0208 68.4517 84.2466 68.696 84.4284 69.0142C84.6103 69.3324 84.7012 69.7216 84.7012 70.1818C84.7012 70.6193 84.6017 71.0128 84.4029 71.3622C84.204 71.7116 83.8901 71.9886 83.4611 72.1932C83.0321 72.3977 82.4739 72.5 81.7864 72.5H78.633ZM79.6898 71.5625H81.7864C82.4767 71.5625 82.9668 71.429 83.2566 71.1619C83.5492 70.892 83.6955 70.5653 83.6955 70.1818C83.6955 69.8864 83.6202 69.6136 83.4696 69.3636C83.3191 69.1108 83.1046 68.9091 82.8262 68.7585C82.5478 68.6051 82.2182 68.5284 81.8375 68.5284H79.6898V71.5625ZM79.6898 67.608H81.65C81.9682 67.608 82.2551 67.5455 82.5108 67.4205C82.7694 67.2955 82.9739 67.1193 83.1245 66.892C83.2779 66.6648 83.3546 66.3977 83.3546 66.0909C83.3546 65.7074 83.2211 65.3821 82.954 65.1151C82.687 64.8452 82.2637 64.7102 81.6841 64.7102H79.6898V67.608ZM88.9604 72.6364C88.3695 72.6364 87.851 72.4957 87.405 72.2145C86.9618 71.9332 86.6152 71.5398 86.3652 71.0341C86.1181 70.5284 85.9945 69.9375 85.9945 69.2614C85.9945 68.5795 86.1181 67.9844 86.3652 67.4759C86.6152 66.9673 86.9618 66.5724 87.405 66.2912C87.851 66.0099 88.3695 65.8693 88.9604 65.8693C89.5513 65.8693 90.0684 66.0099 90.5115 66.2912C90.9576 66.5724 91.3042 66.9673 91.5513 67.4759C91.8013 67.9844 91.9263 68.5795 91.9263 69.2614C91.9263 69.9375 91.8013 70.5284 91.5513 71.0341C91.3042 71.5398 90.9576 71.9332 90.5115 72.2145C90.0684 72.4957 89.5513 72.6364 88.9604 72.6364ZM88.9604 71.733C89.4093 71.733 89.7786 71.6179 90.0684 71.3878C90.3581 71.1577 90.5726 70.8551 90.7118 70.4801C90.851 70.1051 90.9206 69.6989 90.9206 69.2614C90.9206 68.8239 90.851 68.4162 90.7118 68.0384C90.5726 67.6605 90.3581 67.3551 90.0684 67.1222C89.7786 66.8892 89.4093 66.7727 88.9604 66.7727C88.5115 66.7727 88.1422 66.8892 87.8525 67.1222C87.5627 67.3551 87.3482 67.6605 87.209 68.0384C87.0698 68.4162 87.0002 68.8239 87.0002 69.2614C87.0002 69.6989 87.0698 70.1051 87.209 70.4801C87.3482 70.8551 87.5627 71.1577 87.8525 71.3878C88.1422 71.6179 88.5115 71.733 88.9604 71.733ZM96.1206 72.6364C95.5297 72.6364 95.0112 72.4957 94.5652 72.2145C94.122 71.9332 93.7754 71.5398 93.5254 71.0341C93.2782 70.5284 93.1547 69.9375 93.1547 69.2614C93.1547 68.5795 93.2782 67.9844 93.5254 67.4759C93.7754 66.9673 94.122 66.5724 94.5652 66.2912C95.0112 66.0099 95.5297 65.8693 96.1206 65.8693C96.7115 65.8693 97.2285 66.0099 97.6717 66.2912C98.1177 66.5724 98.4643 66.9673 98.7115 67.4759C98.9615 67.9844 99.0865 68.5795 99.0865 69.2614C99.0865 69.9375 98.9615 70.5284 98.7115 71.0341C98.4643 71.5398 98.1177 71.9332 97.6717 72.2145C97.2285 72.4957 96.7115 72.6364 96.1206 72.6364ZM96.1206 71.733C96.5694 71.733 96.9387 71.6179 97.2285 71.3878C97.5183 71.1577 97.7328 70.8551 97.872 70.4801C98.0112 70.1051 98.0808 69.6989 98.0808 69.2614C98.0808 68.8239 98.0112 68.4162 97.872 68.0384C97.7328 67.6605 97.5183 67.3551 97.2285 67.1222C96.9387 66.8892 96.5694 66.7727 96.1206 66.7727C95.6717 66.7727 95.3024 66.8892 95.0126 67.1222C94.7228 67.3551 94.5083 67.6605 94.3691 68.0384C94.2299 68.4162 94.1603 68.8239 94.1603 69.2614C94.1603 69.6989 94.2299 70.1051 94.3691 70.4801C94.5083 70.8551 94.7228 71.1577 95.0126 71.3878C95.3024 71.6179 95.6717 71.733 96.1206 71.733ZM101.559 70.1136L101.542 68.8693H101.747L104.61 65.9545H105.855L102.803 69.0398H102.718L101.559 70.1136ZM100.622 72.5V63.7727H101.627V72.5H100.622ZM104.781 72.5L102.224 69.2614L102.94 68.5625L106.059 72.5H104.781ZM107.149 72.5V65.9545H108.155V72.5H107.149ZM107.66 64.8636C107.464 64.8636 107.295 64.7969 107.153 64.6634C107.014 64.5298 106.944 64.3693 106.944 64.1818C106.944 63.9943 107.014 63.8338 107.153 63.7003C107.295 63.5668 107.464 63.5 107.66 63.5C107.856 63.5 108.024 63.5668 108.163 63.7003C108.305 63.8338 108.376 63.9943 108.376 64.1818C108.376 64.3693 108.305 64.5298 108.163 64.6634C108.024 64.7969 107.856 64.8636 107.66 64.8636ZM111.002 68.5625V72.5H109.997V65.9545H110.968V66.9773H111.053C111.207 66.6449 111.44 66.3778 111.752 66.1761C112.065 65.9716 112.468 65.8693 112.963 65.8693C113.406 65.8693 113.794 65.9602 114.126 66.142C114.458 66.321 114.717 66.5938 114.901 66.9602C115.086 67.3239 115.178 67.7841 115.178 68.3409V72.5H114.173V68.4091C114.173 67.8949 114.039 67.4943 113.772 67.2074C113.505 66.9176 113.139 66.7727 112.673 66.7727C112.352 66.7727 112.065 66.8423 111.812 66.9815C111.562 67.1207 111.365 67.3239 111.22 67.5909C111.075 67.858 111.002 68.1818 111.002 68.5625ZM119.658 75.0909C119.172 75.0909 118.755 75.0284 118.405 74.9034C118.056 74.7812 117.765 74.6193 117.532 74.4176C117.302 74.2188 117.118 74.0057 116.982 73.7784L117.783 73.2159C117.874 73.3352 117.989 73.4716 118.128 73.625C118.268 73.7812 118.458 73.9162 118.699 74.0298C118.944 74.1463 119.263 74.2045 119.658 74.2045C120.187 74.2045 120.623 74.0767 120.966 73.821C121.31 73.5653 121.482 73.1648 121.482 72.6193V71.2898H121.397C121.323 71.4091 121.218 71.5568 121.081 71.733C120.948 71.9062 120.755 72.0611 120.502 72.1974C120.252 72.331 119.914 72.3977 119.488 72.3977C118.959 72.3977 118.485 72.2727 118.064 72.0227C117.647 71.7727 117.316 71.4091 117.072 70.9318C116.83 70.4545 116.709 69.875 116.709 69.1932C116.709 68.5227 116.827 67.9389 117.063 67.4418C117.299 66.9418 117.627 66.5554 118.047 66.2827C118.468 66.0071 118.954 65.8693 119.505 65.8693C119.931 65.8693 120.269 65.9403 120.519 66.0824C120.772 66.2216 120.965 66.3807 121.099 66.5597C121.235 66.7358 121.34 66.8807 121.414 66.9943H121.516V65.9545H122.488V72.6875C122.488 73.25 122.36 73.7074 122.104 74.0597C121.851 74.4148 121.51 74.6747 121.081 74.8395C120.655 75.0071 120.181 75.0909 119.658 75.0909ZM119.624 71.4943C120.028 71.4943 120.368 71.402 120.647 71.2173C120.925 71.0327 121.137 70.767 121.282 70.4205C121.427 70.0739 121.499 69.6591 121.499 69.1761C121.499 68.7045 121.428 68.2884 121.286 67.9276C121.144 67.5668 120.934 67.2841 120.655 67.0795C120.377 66.875 120.033 66.7727 119.624 66.7727C119.198 66.7727 118.843 66.8807 118.559 67.0966C118.278 67.3125 118.066 67.6023 117.924 67.9659C117.785 68.3295 117.715 68.733 117.715 69.1761C117.715 69.6307 117.786 70.0327 117.928 70.3821C118.073 70.7287 118.286 71.0014 118.567 71.2003C118.851 71.3963 119.204 71.4943 119.624 71.4943ZM128.965 67.4205L128.062 67.6761C128.005 67.5256 127.921 67.3793 127.81 67.2372C127.702 67.0923 127.555 66.973 127.367 66.8793C127.18 66.7855 126.939 66.7386 126.647 66.7386C126.246 66.7386 125.912 66.831 125.645 67.0156C125.381 67.1974 125.249 67.429 125.249 67.7102C125.249 67.9602 125.34 68.1577 125.522 68.3026C125.704 68.4474 125.988 68.5682 126.374 68.6648L127.346 68.9034C127.931 69.0455 128.367 69.2628 128.654 69.5554C128.941 69.8452 129.084 70.2187 129.084 70.6761C129.084 71.0511 128.976 71.3864 128.76 71.6818C128.547 71.9773 128.249 72.2102 127.866 72.3807C127.482 72.5511 127.036 72.6364 126.528 72.6364C125.86 72.6364 125.307 72.4915 124.87 72.2017C124.432 71.9119 124.155 71.4886 124.039 70.9318L124.993 70.6932C125.084 71.0455 125.256 71.3097 125.509 71.4858C125.765 71.6619 126.099 71.75 126.51 71.75C126.979 71.75 127.351 71.6506 127.627 71.4517C127.905 71.25 128.045 71.0085 128.045 70.7273C128.045 70.5 127.965 70.3097 127.806 70.1562C127.647 70 127.403 69.8835 127.073 69.8068L125.982 69.5511C125.383 69.4091 124.942 69.1889 124.661 68.8906C124.383 68.5895 124.243 68.2131 124.243 67.7614C124.243 67.392 124.347 67.0653 124.555 66.7812C124.765 66.4972 125.05 66.2741 125.411 66.1122C125.775 65.9503 126.187 65.8693 126.647 65.8693C127.295 65.8693 127.803 66.0114 128.172 66.2955C128.545 66.5795 128.809 66.9545 128.965 67.4205Z" fill="#636365"/>
<path d="M54.1104 98.6875V96.0234L60.79 85.5H63.0869V89.1875H61.7275L57.5166 95.8516V95.9766H67.0088V98.6875H54.1104ZM61.79 101.5V97.875L61.8525 96.6953V85.5H65.0244V101.5H61.79ZM69.0205 98.6875V96.0234L75.7002 85.5H77.9971V89.1875H76.6377L72.4268 95.8516V95.9766H81.9189V98.6875H69.0205ZM76.7002 101.5V97.875L76.7627 96.6953V85.5H79.9346V101.5H76.7002ZM87.5205 99.3125L87.4346 100.172C87.3669 100.859 87.2367 101.544 87.0439 102.227C86.8564 102.914 86.6585 103.536 86.4502 104.094C86.2471 104.651 86.083 105.089 85.958 105.406H83.8018C83.8799 105.099 83.9867 104.669 84.1221 104.117C84.2575 103.57 84.3851 102.956 84.5049 102.273C84.6247 101.591 84.7002 100.896 84.7314 100.187L84.7705 99.3125H87.5205ZM95.4951 85.5V101.5H92.1123V88.7109H92.0186L88.3545 91.0078V88.0078L92.3154 85.5H95.4951ZM106.259 85.5V101.5H102.876V88.7109H102.782L99.1182 91.0078V88.0078L103.079 85.5H106.259ZM115.905 101.719C114.801 101.719 113.817 101.516 112.952 101.109C112.093 100.703 111.41 100.143 110.905 99.4297C110.4 98.7161 110.137 97.8984 110.116 96.9766H113.397C113.434 97.5964 113.694 98.099 114.179 98.4844C114.663 98.8698 115.239 99.0625 115.905 99.0625C116.437 99.0625 116.905 98.9453 117.312 98.7109C117.723 98.4714 118.043 98.1406 118.272 97.7188C118.507 97.2917 118.624 96.8021 118.624 96.25C118.624 95.6875 118.504 95.1927 118.265 94.7656C118.03 94.3385 117.705 94.0052 117.288 93.7656C116.871 93.526 116.395 93.4036 115.858 93.3984C115.39 93.3984 114.934 93.4948 114.491 93.6875C114.054 93.8802 113.713 94.1432 113.468 94.4766L110.46 93.9375L111.218 85.5H120.999V88.2656H114.007L113.593 92.2734H113.687C113.968 91.8776 114.392 91.5495 114.96 91.2891C115.528 91.0286 116.163 90.8984 116.866 90.8984C117.83 90.8984 118.689 91.125 119.444 91.5781C120.2 92.0312 120.796 92.6536 121.233 93.4453C121.671 94.2318 121.887 95.138 121.882 96.1641C121.887 97.2422 121.637 98.2005 121.132 99.0391C120.632 99.8724 119.931 100.529 119.03 101.008C118.134 101.482 117.093 101.719 115.905 101.719Z" fill="#37437D"/>
</svg>
