<svg width="523" height="219" viewBox="0 0 523 219" fill="none" xmlns="http://www.w3.org/2000/svg">
<path d="M0.828125 24.5V23.7969L3.46875 20.9062C3.77865 20.5677 4.03385 20.2734 4.23438 20.0234C4.4349 19.7708 4.58333 19.5339 4.67969 19.3125C4.77865 19.0885 4.82813 18.8542 4.82813 18.6094C4.82813 18.3281 4.76042 18.0846 4.625 17.8789C4.49219 17.6732 4.3099 17.5143 4.07813 17.4023C3.84635 17.2904 3.58594 17.2344 3.29687 17.2344C2.98958 17.2344 2.72135 17.2982 2.49219 17.4258C2.26563 17.5508 2.08984 17.7266 1.96484 17.9531C1.84245 18.1797 1.78125 18.4453 1.78125 18.75H0.859375C0.859375 18.2812 0.967448 17.8698 1.18359 17.5156C1.39974 17.1615 1.69401 16.8854 2.06641 16.6875C2.44141 16.4896 2.86198 16.3906 3.32812 16.3906C3.79688 16.3906 4.21224 16.4896 4.57422 16.6875C4.9362 16.8854 5.22005 17.1523 5.42578 17.4883C5.63151 17.8242 5.73437 18.1979 5.73437 18.6094C5.73437 18.9036 5.68099 19.1914 5.57422 19.4727C5.47005 19.7513 5.28776 20.0625 5.02734 20.4062C4.76953 20.7474 4.41146 21.1641 3.95312 21.6562L2.15625 23.5781V23.6406H5.875V24.5H0.828125ZM7.62891 24.5V16.5H8.59766V20.4687H8.69141L12.2852 16.5H13.5508L10.1914 20.1094L13.5508 24.5H12.3789L9.59766 20.7812L8.59766 21.9062V24.5H7.62891Z" fill="#636365"/>
<path d="M3.64062 58.25V66.25H2.67188V59.2656H2.625L0.671875 60.5625V59.5781L2.67188 58.25H3.64062ZM6.15625 66.3125C5.96354 66.3125 5.79818 66.2435 5.66016 66.1055C5.52214 65.9674 5.45313 65.8021 5.45313 65.6094C5.45313 65.4167 5.52214 65.2513 5.66016 65.1133C5.79818 64.9753 5.96354 64.9062 6.15625 64.9062C6.34896 64.9062 6.51432 64.9753 6.65234 65.1133C6.79036 65.2513 6.85938 65.4167 6.85938 65.6094C6.85938 65.737 6.82682 65.8542 6.76172 65.9609C6.69922 66.0677 6.61458 66.1536 6.50781 66.2187C6.40365 66.2813 6.28646 66.3125 6.15625 66.3125ZM10.8369 66.3594C10.3786 66.3594 9.96582 66.2682 9.59863 66.0859C9.23145 65.9036 8.93717 65.6536 8.71582 65.3359C8.49447 65.0182 8.37337 64.6562 8.35254 64.25H9.29004C9.3265 64.612 9.49056 64.9115 9.78223 65.1484C10.0765 65.3828 10.4281 65.5 10.8369 65.5C11.165 65.5 11.4567 65.4232 11.7119 65.2695C11.9697 65.1159 12.1715 64.9049 12.3174 64.6367C12.4658 64.3659 12.54 64.0599 12.54 63.7187C12.54 63.3698 12.4632 63.0586 12.3096 62.7852C12.1585 62.5091 11.9502 62.2917 11.6846 62.1328C11.4189 61.974 11.1156 61.8932 10.7744 61.8906C10.5296 61.888 10.2783 61.9258 10.0205 62.0039C9.7627 62.0794 9.55046 62.1771 9.38379 62.2969L8.47754 62.1875L8.96191 58.25H13.1182V59.1094H9.77441L9.49316 61.4687H9.54004C9.7041 61.3385 9.90983 61.2305 10.1572 61.1445C10.4046 61.0586 10.6624 61.0156 10.9307 61.0156C11.4202 61.0156 11.8564 61.1328 12.2393 61.3672C12.6247 61.599 12.9268 61.9167 13.1455 62.3203C13.3669 62.724 13.4775 63.1849 13.4775 63.7031C13.4775 64.2135 13.363 64.6693 13.1338 65.0703C12.9072 65.4687 12.5947 65.7839 12.1963 66.0156C11.7979 66.2448 11.3447 66.3594 10.8369 66.3594ZM15.1699 66.25V58.25H16.1387V62.2187H16.2324L19.8262 58.25H21.0918L17.7324 61.8594L21.0918 66.25H19.9199L17.1387 62.5312L16.1387 63.6562V66.25H15.1699Z" fill="#636365"/>
<path d="M3.64062 100V108H2.67188V101.016H2.625L0.671875 102.312V101.328L2.67188 100H3.64062ZM6.08203 108V100H7.05078V103.969H7.14453L10.7383 100H12.0039L8.64453 103.609L12.0039 108H10.832L8.05078 104.281L7.05078 105.406V108H6.08203Z" fill="#636365"/>
<path d="M3.4375 149.859C2.84896 149.859 2.34766 149.699 1.93359 149.379C1.51953 149.056 1.20313 148.589 0.984375 147.977C0.765625 147.362 0.65625 146.62 0.65625 145.75C0.65625 144.885 0.765625 144.147 0.984375 143.535C1.20573 142.921 1.52344 142.452 1.9375 142.129C2.35417 141.803 2.85417 141.641 3.4375 141.641C4.02083 141.641 4.51953 141.803 4.93359 142.129C5.35026 142.452 5.66797 142.921 5.88672 143.535C6.10807 144.147 6.21875 144.885 6.21875 145.75C6.21875 146.62 6.10938 147.362 5.89063 147.977C5.67188 148.589 5.35547 149.056 4.94141 149.379C4.52734 149.699 4.02604 149.859 3.4375 149.859ZM3.4375 149C4.02083 149 4.47396 148.719 4.79688 148.156C5.11979 147.594 5.28125 146.792 5.28125 145.75C5.28125 145.057 5.20703 144.467 5.05859 143.98C4.91276 143.493 4.70182 143.122 4.42578 142.867C4.15234 142.612 3.82292 142.484 3.4375 142.484C2.85938 142.484 2.40755 142.77 2.08203 143.34C1.75651 143.908 1.59375 144.711 1.59375 145.75C1.59375 146.443 1.66667 147.031 1.8125 147.516C1.95833 148 2.16797 148.368 2.44141 148.621C2.71745 148.874 3.04948 149 3.4375 149ZM8.11133 149.813C7.91862 149.813 7.75326 149.743 7.61523 149.605C7.47721 149.467 7.4082 149.302 7.4082 149.109C7.4082 148.917 7.47721 148.751 7.61523 148.613C7.75326 148.475 7.91862 148.406 8.11133 148.406C8.30404 148.406 8.4694 148.475 8.60742 148.613C8.74544 148.751 8.81445 148.917 8.81445 149.109C8.81445 149.237 8.7819 149.354 8.7168 149.461C8.6543 149.568 8.56966 149.654 8.46289 149.719C8.35872 149.781 8.24154 149.813 8.11133 149.813ZM12.792 149.859C12.3337 149.859 11.9209 149.768 11.5537 149.586C11.1865 149.404 10.8923 149.154 10.6709 148.836C10.4495 148.518 10.3285 148.156 10.3076 147.75H11.2451C11.2816 148.112 11.4456 148.411 11.7373 148.648C12.0316 148.883 12.3831 149 12.792 149C13.1201 149 13.4118 148.923 13.667 148.77C13.9248 148.616 14.1266 148.405 14.2725 148.137C14.4209 147.866 14.4951 147.56 14.4951 147.219C14.4951 146.87 14.4183 146.559 14.2646 146.285C14.1136 146.009 13.9053 145.792 13.6396 145.633C13.374 145.474 13.0706 145.393 12.7295 145.391C12.4847 145.388 12.2334 145.426 11.9756 145.504C11.7178 145.579 11.5055 145.677 11.3389 145.797L10.4326 145.687L10.917 141.75H15.0732V142.609H11.7295L11.4482 144.969H11.4951C11.6592 144.839 11.8649 144.73 12.1123 144.645C12.3597 144.559 12.6175 144.516 12.8857 144.516C13.3753 144.516 13.8115 144.633 14.1943 144.867C14.5798 145.099 14.8818 145.417 15.1006 145.82C15.3219 146.224 15.4326 146.685 15.4326 147.203C15.4326 147.714 15.318 148.169 15.0889 148.57C14.8623 148.969 14.5498 149.284 14.1514 149.516C13.7529 149.745 13.2998 149.859 12.792 149.859ZM17.125 149.75V141.75H18.0938V145.719H18.1875L21.7812 141.75H23.0469L19.6875 145.359L23.0469 149.75H21.875L19.0938 146.031L18.0938 147.156V149.75H17.125Z" fill="#636365"/>
<path d="M3.4375 191.609C2.84896 191.609 2.34766 191.449 1.93359 191.129C1.51953 190.806 1.20313 190.339 0.984375 189.727C0.765625 189.112 0.65625 188.37 0.65625 187.5C0.65625 186.635 0.765625 185.897 0.984375 185.285C1.20573 184.671 1.52344 184.202 1.9375 183.879C2.35417 183.553 2.85417 183.391 3.4375 183.391C4.02083 183.391 4.51953 183.553 4.93359 183.879C5.35026 184.202 5.66797 184.671 5.88672 185.285C6.10807 185.897 6.21875 186.635 6.21875 187.5C6.21875 188.37 6.10938 189.112 5.89063 189.727C5.67188 190.339 5.35547 190.806 4.94141 191.129C4.52734 191.449 4.02604 191.609 3.4375 191.609ZM3.4375 190.75C4.02083 190.75 4.47396 190.469 4.79688 189.906C5.11979 189.344 5.28125 188.542 5.28125 187.5C5.28125 186.807 5.20703 186.217 5.05859 185.73C4.91276 185.243 4.70182 184.872 4.42578 184.617C4.15234 184.362 3.82292 184.234 3.4375 184.234C2.85938 184.234 2.40755 184.52 2.08203 185.09C1.75651 185.658 1.59375 186.461 1.59375 187.5C1.59375 188.193 1.66667 188.781 1.8125 189.266C1.95833 189.75 2.16797 190.118 2.44141 190.371C2.71745 190.624 3.04948 190.75 3.4375 190.75Z" fill="#636365"/>
<path d="M32 20.5H102.071" stroke="#EDEDED" stroke-linecap="round" stroke-linejoin="round"/>
<path d="M32 62.25H102.071" stroke="#EDEDED" stroke-linecap="round" stroke-linejoin="round"/>
<path d="M32 104H102.071" stroke="#EDEDED" stroke-linecap="round" stroke-linejoin="round"/>
<path d="M32 145.75H102.071" stroke="#EDEDED" stroke-linecap="round" stroke-linejoin="round"/>
<path d="M32 187.5H102.071" stroke="#EDEDED" stroke-linecap="round" stroke-linejoin="round"/>
<path d="M62.4591 206.5C62.4122 206.104 62.2221 205.797 61.8887 205.578C61.5554 205.359 61.1466 205.25 60.6622 205.25C60.308 205.25 59.9981 205.307 59.7325 205.422C59.4695 205.536 59.2637 205.694 59.1153 205.895C58.9695 206.095 58.8966 206.323 58.8966 206.578C58.8966 206.792 58.9473 206.975 59.0489 207.129C59.1531 207.28 59.2859 207.406 59.4473 207.508C59.6088 207.607 59.7781 207.689 59.9551 207.754C60.1322 207.816 60.295 207.867 60.4434 207.906L61.2559 208.125C61.4643 208.18 61.696 208.255 61.9512 208.352C62.2091 208.448 62.4551 208.579 62.6895 208.746C62.9265 208.91 63.1218 209.121 63.2755 209.379C63.4291 209.637 63.5059 209.953 63.5059 210.328C63.5059 210.76 63.3926 211.151 63.1661 211.5C62.9421 211.849 62.614 212.126 62.1817 212.332C61.752 212.538 61.2299 212.641 60.6153 212.641C60.0424 212.641 59.5463 212.548 59.127 212.363C58.7104 212.178 58.3822 211.921 58.1426 211.59C57.9057 211.259 57.7716 210.875 57.7403 210.438H58.7403C58.7663 210.74 58.8679 210.99 59.045 211.187C59.2247 211.383 59.4512 211.529 59.7247 211.625C60.0007 211.719 60.2976 211.766 60.6153 211.766C60.9851 211.766 61.3171 211.706 61.6114 211.586C61.9057 211.464 62.1387 211.294 62.3106 211.078C62.4825 210.859 62.5684 210.604 62.5684 210.312C62.5684 210.047 62.4942 209.831 62.3458 209.664C62.1973 209.497 62.002 209.362 61.7598 209.258C61.5176 209.154 61.2559 209.062 60.9747 208.984L59.9903 208.703C59.3653 208.523 58.8705 208.267 58.5059 207.934C58.1413 207.6 57.9591 207.164 57.9591 206.625C57.9591 206.177 58.0801 205.786 58.3223 205.453C58.5671 205.117 58.8953 204.857 59.3067 204.672C59.7208 204.484 60.183 204.391 60.6934 204.391C61.2091 204.391 61.6674 204.483 62.0684 204.668C62.4695 204.85 62.7872 205.1 63.0216 205.418C63.2585 205.736 63.3835 206.096 63.3966 206.5H62.4591ZM68.755 210.047V206.5H69.6768V212.5H68.755V211.484H68.6925C68.5518 211.789 68.3331 212.048 68.0362 212.262C67.7393 212.473 67.3643 212.578 66.9112 212.578C66.5362 212.578 66.2029 212.496 65.9112 212.332C65.6195 212.165 65.3904 211.915 65.2237 211.582C65.057 211.246 64.9737 210.823 64.9737 210.312V206.5H65.8956V210.25C65.8956 210.687 66.018 211.036 66.2628 211.297C66.5102 211.557 66.8253 211.687 67.2081 211.687C67.4372 211.687 67.6703 211.629 67.9073 211.512C68.1469 211.395 68.3474 211.215 68.5089 210.973C68.6729 210.73 68.755 210.422 68.755 210.047ZM72.2872 208.891V212.5H71.3653V206.5H72.2559V207.437H72.3341C72.4747 207.133 72.6882 206.888 72.9747 206.703C73.2611 206.516 73.6309 206.422 74.0841 206.422C74.4903 206.422 74.8458 206.505 75.1505 206.672C75.4551 206.836 75.6921 207.086 75.8614 207.422C76.0307 207.755 76.1153 208.177 76.1153 208.688V212.5H75.1934V208.75C75.1934 208.279 75.071 207.911 74.8262 207.648C74.5814 207.383 74.2455 207.25 73.8184 207.25C73.5242 207.25 73.2611 207.314 73.0294 207.441C72.8002 207.569 72.6192 207.755 72.4864 208C72.3536 208.245 72.2872 208.542 72.2872 208.891Z" fill="#636365"/>
<path d="M102.072 20.5H172.143" stroke="#EDEDED" stroke-linecap="round" stroke-linejoin="round"/>
<path d="M102.072 62.25H172.143" stroke="#EDEDED" stroke-linecap="round" stroke-linejoin="round"/>
<path d="M102.072 104H172.143" stroke="#EDEDED" stroke-linecap="round" stroke-linejoin="round"/>
<path d="M102.072 145.75H172.143" stroke="#EDEDED" stroke-linecap="round" stroke-linejoin="round"/>
<path d="M102.072 187.5H172.143" stroke="#EDEDED" stroke-linecap="round" stroke-linejoin="round"/>
<path d="M126.684 204.5H127.84L130.559 211.141H130.653L133.371 204.5H134.528V212.5H133.621V206.422H133.543L131.043 212.5H130.168L127.668 206.422H127.59V212.5H126.684V204.5ZM138.783 212.625C138.241 212.625 137.766 212.496 137.357 212.238C136.951 211.98 136.633 211.62 136.404 211.156C136.177 210.693 136.064 210.151 136.064 209.531C136.064 208.906 136.177 208.361 136.404 207.895C136.633 207.428 136.951 207.066 137.357 206.809C137.766 206.551 138.241 206.422 138.783 206.422C139.324 206.422 139.798 206.551 140.204 206.809C140.613 207.066 140.931 207.428 141.158 207.895C141.387 208.361 141.501 208.906 141.501 209.531C141.501 210.151 141.387 210.693 141.158 211.156C140.931 211.62 140.613 211.98 140.204 212.238C139.798 212.496 139.324 212.625 138.783 212.625ZM138.783 211.797C139.194 211.797 139.533 211.691 139.798 211.48C140.064 211.27 140.26 210.992 140.388 210.648C140.516 210.305 140.579 209.932 140.579 209.531C140.579 209.13 140.516 208.757 140.388 208.41C140.26 208.064 140.064 207.784 139.798 207.57C139.533 207.357 139.194 207.25 138.783 207.25C138.371 207.25 138.033 207.357 137.767 207.57C137.501 207.784 137.305 208.064 137.177 208.41C137.049 208.757 136.986 209.13 136.986 209.531C136.986 209.932 137.049 210.305 137.177 210.648C137.305 210.992 137.501 211.27 137.767 211.48C138.033 211.691 138.371 211.797 138.783 211.797ZM143.83 208.891V212.5H142.909V206.5H143.799V207.437H143.877C144.018 207.133 144.231 206.888 144.518 206.703C144.804 206.516 145.174 206.422 145.627 206.422C146.034 206.422 146.389 206.505 146.694 206.672C146.998 206.836 147.235 207.086 147.405 207.422C147.574 207.755 147.659 208.177 147.659 208.688V212.5H146.737V208.75C146.737 208.279 146.614 207.911 146.369 207.648C146.125 207.383 145.789 207.25 145.362 207.25C145.067 207.25 144.804 207.314 144.573 207.441C144.343 207.569 144.162 207.755 144.03 208C143.897 208.245 143.83 208.542 143.83 208.891Z" fill="#636365"/>
<path d="M172.143 20.5H242.214" stroke="#EDEDED" stroke-linecap="round" stroke-linejoin="round"/>
<path d="M172.143 62.25H242.214" stroke="#EDEDED" stroke-linecap="round" stroke-linejoin="round"/>
<path d="M172.143 104H242.214" stroke="#EDEDED" stroke-linecap="round" stroke-linejoin="round"/>
<path d="M172.143 145.75H242.214" stroke="#EDEDED" stroke-linecap="round" stroke-linejoin="round"/>
<path d="M172.143 187.5H242.214" stroke="#EDEDED" stroke-linecap="round" stroke-linejoin="round"/>
<path d="M198.192 205.359V204.5H204.192V205.359H201.677V212.5H200.708V205.359H198.192ZM208.527 210.047V206.5H209.449V212.5H208.527V211.484H208.465C208.324 211.789 208.105 212.048 207.808 212.262C207.512 212.473 207.137 212.578 206.683 212.578C206.308 212.578 205.975 212.496 205.683 212.332C205.392 212.165 205.163 211.915 204.996 211.582C204.829 211.246 204.746 210.823 204.746 210.312V206.5H205.668V210.25C205.668 210.687 205.79 211.036 206.035 211.297C206.282 211.557 206.597 211.687 206.98 211.687C207.209 211.687 207.443 211.629 207.68 211.512C207.919 211.395 208.12 211.215 208.281 210.973C208.445 210.73 208.527 210.422 208.527 210.047ZM213.653 212.625C213.075 212.625 212.576 212.497 212.157 212.242C211.74 211.984 211.419 211.625 211.192 211.164C210.968 210.701 210.856 210.161 210.856 209.547C210.856 208.932 210.968 208.391 211.192 207.922C211.419 207.451 211.734 207.083 212.138 206.82C212.544 206.555 213.018 206.422 213.559 206.422C213.872 206.422 214.18 206.474 214.485 206.578C214.79 206.682 215.067 206.852 215.317 207.086C215.567 207.318 215.766 207.625 215.915 208.008C216.063 208.391 216.138 208.862 216.138 209.422V209.812H211.513V209.016H215.2C215.2 208.677 215.132 208.375 214.997 208.109C214.864 207.844 214.674 207.634 214.427 207.48C214.182 207.327 213.893 207.25 213.559 207.25C213.192 207.25 212.874 207.341 212.606 207.523C212.341 207.703 212.136 207.937 211.993 208.227C211.85 208.516 211.778 208.826 211.778 209.156V209.688C211.778 210.141 211.856 210.525 212.013 210.84C212.171 211.152 212.391 211.391 212.673 211.555C212.954 211.716 213.281 211.797 213.653 211.797C213.895 211.797 214.114 211.763 214.309 211.695C214.507 211.625 214.678 211.521 214.821 211.383C214.964 211.242 215.075 211.068 215.153 210.859L216.044 211.109C215.95 211.411 215.792 211.677 215.571 211.906C215.35 212.133 215.076 212.31 214.751 212.437C214.425 212.563 214.059 212.625 213.653 212.625Z" fill="#636365"/>
<path d="M242.214 20.5H312.286" stroke="#EDEDED" stroke-linecap="round" stroke-linejoin="round"/>
<path d="M242.214 62.25H312.286" stroke="#EDEDED" stroke-linecap="round" stroke-linejoin="round"/>
<path d="M242.214 104H312.286" stroke="#EDEDED" stroke-linecap="round" stroke-linejoin="round"/>
<path d="M242.214 145.75H312.286" stroke="#EDEDED" stroke-linecap="round" stroke-linejoin="round"/>
<path d="M242.214 187.5H312.286" stroke="#EDEDED" stroke-linecap="round" stroke-linejoin="round"/>
<path d="M268.113 212.5L265.926 204.5H266.91L268.582 211.016H268.66L270.363 204.5H271.457L273.16 211.016H273.238L274.91 204.5H275.895L273.707 212.5H272.707L270.941 206.125H270.879L269.113 212.5H268.113ZM278.934 212.625C278.356 212.625 277.857 212.497 277.438 212.242C277.021 211.984 276.699 211.625 276.473 211.164C276.249 210.701 276.137 210.161 276.137 209.547C276.137 208.932 276.249 208.391 276.473 207.922C276.699 207.451 277.014 207.083 277.418 206.82C277.824 206.555 278.298 206.422 278.84 206.422C279.152 206.422 279.461 206.474 279.766 206.578C280.07 206.682 280.348 206.852 280.598 207.086C280.848 207.318 281.047 207.625 281.195 208.008C281.344 208.391 281.418 208.862 281.418 209.422V209.812H276.793V209.016H280.481C280.481 208.677 280.413 208.375 280.277 208.109C280.145 207.844 279.954 207.634 279.707 207.48C279.462 207.327 279.173 207.25 278.84 207.25C278.473 207.25 278.155 207.341 277.887 207.523C277.621 207.703 277.417 207.937 277.274 208.227C277.13 208.516 277.059 208.826 277.059 209.156V209.688C277.059 210.141 277.137 210.525 277.293 210.84C277.452 211.152 277.672 211.391 277.953 211.555C278.234 211.716 278.561 211.797 278.934 211.797C279.176 211.797 279.395 211.763 279.59 211.695C279.788 211.625 279.958 211.521 280.102 211.383C280.245 211.242 280.356 211.068 280.434 210.859L281.324 211.109C281.231 211.411 281.073 211.677 280.852 211.906C280.63 212.133 280.357 212.31 280.031 212.437C279.706 212.563 279.34 212.625 278.934 212.625ZM285.086 212.625C284.586 212.625 284.145 212.499 283.762 212.246C283.379 211.991 283.079 211.632 282.863 211.168C282.647 210.702 282.539 210.151 282.539 209.516C282.539 208.885 282.647 208.339 282.863 207.875C283.079 207.411 283.38 207.053 283.766 206.801C284.151 206.548 284.596 206.422 285.102 206.422C285.492 206.422 285.801 206.487 286.027 206.617C286.257 206.745 286.431 206.891 286.551 207.055C286.673 207.216 286.768 207.349 286.836 207.453H286.914V204.5H287.836V212.5H286.945V211.578H286.836C286.768 211.687 286.672 211.826 286.547 211.992C286.422 212.156 286.244 212.303 286.012 212.434C285.78 212.561 285.471 212.625 285.086 212.625ZM285.211 211.797C285.581 211.797 285.893 211.701 286.149 211.508C286.404 211.312 286.598 211.043 286.731 210.699C286.863 210.353 286.93 209.953 286.93 209.5C286.93 209.052 286.865 208.66 286.734 208.324C286.604 207.986 286.412 207.723 286.156 207.535C285.901 207.345 285.586 207.25 285.211 207.25C284.82 207.25 284.495 207.35 284.234 207.551C283.977 207.749 283.783 208.018 283.652 208.359C283.525 208.698 283.461 209.078 283.461 209.5C283.461 209.927 283.526 210.315 283.656 210.664C283.789 211.01 283.984 211.286 284.242 211.492C284.503 211.695 284.826 211.797 285.211 211.797Z" fill="#636365"/>
<path d="M312.286 20.5H382.357" stroke="#EDEDED" stroke-linecap="round" stroke-linejoin="round"/>
<path d="M312.286 62.25H382.357" stroke="#EDEDED" stroke-linecap="round" stroke-linejoin="round"/>
<path d="M312.286 104H382.357" stroke="#EDEDED" stroke-linecap="round" stroke-linejoin="round"/>
<path d="M312.286 145.75H382.357" stroke="#EDEDED" stroke-linecap="round" stroke-linejoin="round"/>
<path d="M312.286 187.5H382.357" stroke="#EDEDED" stroke-linecap="round" stroke-linejoin="round"/>
<path d="M337.878 205.359V204.5H343.878V205.359H341.363V212.5H340.394V205.359H337.878ZM346.17 208.891V212.5H345.249V204.5H346.17V207.437H346.249C346.389 207.128 346.6 206.882 346.881 206.699C347.165 206.514 347.543 206.422 348.014 206.422C348.423 206.422 348.781 206.504 349.088 206.668C349.396 206.829 349.634 207.078 349.803 207.414C349.975 207.747 350.061 208.172 350.061 208.688V212.5H349.139V208.75C349.139 208.273 349.016 207.905 348.768 207.645C348.523 207.382 348.183 207.25 347.749 207.25C347.447 207.25 347.176 207.314 346.936 207.441C346.699 207.569 346.512 207.755 346.374 208C346.238 208.245 346.17 208.542 346.17 208.891ZM355.529 210.047V206.5H356.451V212.5H355.529V211.484H355.466C355.326 211.789 355.107 212.048 354.81 212.262C354.513 212.473 354.138 212.578 353.685 212.578C353.31 212.578 352.977 212.496 352.685 212.332C352.393 212.165 352.164 211.915 351.998 211.582C351.831 211.246 351.748 210.823 351.748 210.312V206.5H352.67V210.25C352.67 210.687 352.792 211.036 353.037 211.297C353.284 211.557 353.599 211.687 353.982 211.687C354.211 211.687 354.444 211.629 354.681 211.512C354.921 211.395 355.121 211.215 355.283 210.973C355.447 210.73 355.529 210.422 355.529 210.047Z" fill="#636365"/>
<path d="M382.357 20.5H452.428" stroke="#EDEDED" stroke-linecap="round" stroke-linejoin="round"/>
<path d="M382.357 62.25H452.428" stroke="#EDEDED" stroke-linecap="round" stroke-linejoin="round"/>
<path d="M382.357 104H452.428" stroke="#EDEDED" stroke-linecap="round" stroke-linejoin="round"/>
<path d="M382.357 145.75H452.428" stroke="#EDEDED" stroke-linecap="round" stroke-linejoin="round"/>
<path d="M382.357 187.5H452.428" stroke="#EDEDED" stroke-linecap="round" stroke-linejoin="round"/>
<path d="M411.814 212.5V204.5H416.611V205.359H412.783V208.062H416.252V208.922H412.783V212.5H411.814ZM418.081 212.5V206.5H418.971V207.406H419.034C419.143 207.109 419.341 206.868 419.628 206.684C419.914 206.499 420.237 206.406 420.596 206.406C420.664 206.406 420.749 206.408 420.85 206.41C420.952 206.413 421.029 206.417 421.081 206.422V207.359C421.049 207.352 420.978 207.34 420.866 207.324C420.756 207.306 420.641 207.297 420.518 207.297C420.226 207.297 419.966 207.358 419.737 207.48C419.51 207.6 419.331 207.767 419.198 207.98C419.068 208.191 419.003 208.432 419.003 208.703V212.5H418.081ZM422.173 212.5V206.5H423.095V212.5H422.173ZM422.642 205.5C422.462 205.5 422.308 205.439 422.177 205.316C422.05 205.194 421.986 205.047 421.986 204.875C421.986 204.703 422.05 204.556 422.177 204.434C422.308 204.311 422.462 204.25 422.642 204.25C422.822 204.25 422.975 204.311 423.103 204.434C423.233 204.556 423.298 204.703 423.298 204.875C423.298 205.047 423.233 205.194 423.103 205.316C422.975 205.439 422.822 205.5 422.642 205.5Z" fill="#636365"/>
<path d="M452.429 20.5H522.5" stroke="#EDEDED" stroke-linecap="round" stroke-linejoin="round"/>
<path d="M452.429 62.25H522.5" stroke="#EDEDED" stroke-linecap="round" stroke-linejoin="round"/>
<path d="M452.429 104H522.5" stroke="#EDEDED" stroke-linecap="round" stroke-linejoin="round"/>
<path d="M452.429 145.75H522.5" stroke="#EDEDED" stroke-linecap="round" stroke-linejoin="round"/>
<path d="M452.429 187.5H522.5" stroke="#EDEDED" stroke-linecap="round" stroke-linejoin="round"/>
<path d="M484.204 206.5C484.157 206.104 483.967 205.797 483.633 205.578C483.3 205.359 482.891 205.25 482.407 205.25C482.053 205.25 481.743 205.307 481.477 205.422C481.214 205.536 481.008 205.694 480.86 205.895C480.714 206.095 480.641 206.323 480.641 206.578C480.641 206.792 480.692 206.975 480.794 207.129C480.898 207.28 481.031 207.406 481.192 207.508C481.353 207.607 481.523 207.689 481.7 207.754C481.877 207.816 482.04 207.867 482.188 207.906L483.001 208.125C483.209 208.18 483.441 208.255 483.696 208.352C483.954 208.448 484.2 208.579 484.434 208.746C484.671 208.91 484.866 209.121 485.02 209.379C485.174 209.637 485.251 209.953 485.251 210.328C485.251 210.76 485.137 211.151 484.911 211.5C484.687 211.849 484.359 212.126 483.926 212.332C483.497 212.538 482.975 212.641 482.36 212.641C481.787 212.641 481.291 212.548 480.872 212.363C480.455 212.178 480.127 211.921 479.887 211.59C479.65 211.259 479.516 210.875 479.485 210.438H480.485C480.511 210.74 480.613 210.99 480.79 211.187C480.969 211.383 481.196 211.529 481.469 211.625C481.745 211.719 482.042 211.766 482.36 211.766C482.73 211.766 483.062 211.706 483.356 211.586C483.65 211.464 483.883 211.294 484.055 211.078C484.227 210.859 484.313 210.604 484.313 210.312C484.313 210.047 484.239 209.831 484.09 209.664C483.942 209.497 483.747 209.362 483.504 209.258C483.262 209.154 483.001 209.062 482.719 208.984L481.735 208.703C481.11 208.523 480.615 208.267 480.251 207.934C479.886 207.6 479.704 207.164 479.704 206.625C479.704 206.177 479.825 205.786 480.067 205.453C480.312 205.117 480.64 204.857 481.051 204.672C481.465 204.484 481.928 204.391 482.438 204.391C482.954 204.391 483.412 204.483 483.813 204.668C484.214 204.85 484.532 205.1 484.766 205.418C485.003 205.736 485.128 206.096 485.141 206.5H484.204ZM488.484 212.641C488.104 212.641 487.759 212.569 487.449 212.426C487.139 212.28 486.893 212.07 486.711 211.797C486.528 211.521 486.437 211.187 486.437 210.797C486.437 210.453 486.505 210.174 486.64 209.961C486.776 209.745 486.957 209.576 487.183 209.453C487.41 209.331 487.66 209.24 487.933 209.18C488.209 209.117 488.487 209.068 488.765 209.031C489.13 208.984 489.425 208.949 489.652 208.926C489.881 208.9 490.048 208.857 490.152 208.797C490.259 208.737 490.312 208.633 490.312 208.484V208.453C490.312 208.068 490.207 207.768 489.996 207.555C489.787 207.341 489.471 207.234 489.046 207.234C488.606 207.234 488.261 207.331 488.011 207.523C487.761 207.716 487.586 207.922 487.484 208.141L486.609 207.828C486.765 207.464 486.974 207.18 487.234 206.977C487.497 206.771 487.783 206.628 488.093 206.547C488.406 206.464 488.713 206.422 489.015 206.422C489.208 206.422 489.429 206.445 489.679 206.492C489.932 206.536 490.175 206.629 490.41 206.77C490.647 206.91 490.843 207.122 491 207.406C491.156 207.69 491.234 208.07 491.234 208.547V212.5H490.312V211.687H490.265C490.203 211.818 490.099 211.957 489.953 212.105C489.807 212.254 489.613 212.38 489.371 212.484C489.128 212.589 488.833 212.641 488.484 212.641ZM488.625 211.812C488.989 211.812 489.296 211.741 489.546 211.598C489.799 211.454 489.989 211.27 490.117 211.043C490.247 210.816 490.312 210.578 490.312 210.328V209.484C490.273 209.531 490.187 209.574 490.054 209.613C489.924 209.65 489.773 209.682 489.601 209.711C489.432 209.737 489.267 209.76 489.105 209.781C488.946 209.799 488.817 209.815 488.718 209.828C488.479 209.859 488.255 209.91 488.046 209.98C487.841 210.048 487.674 210.151 487.546 210.289C487.421 210.424 487.359 210.609 487.359 210.844C487.359 211.164 487.477 211.406 487.714 211.57C487.954 211.732 488.257 211.812 488.625 211.812ZM495.526 206.5V207.281H492.417V206.5H495.526ZM493.323 205.062H494.245V210.781C494.245 211.042 494.282 211.237 494.358 211.367C494.436 211.495 494.535 211.581 494.655 211.625C494.777 211.667 494.906 211.687 495.042 211.687C495.143 211.687 495.226 211.682 495.292 211.672C495.357 211.659 495.409 211.648 495.448 211.641L495.635 212.469C495.573 212.492 495.486 212.516 495.374 212.539C495.262 212.565 495.12 212.578 494.948 212.578C494.687 212.578 494.432 212.522 494.182 212.41C493.935 212.298 493.729 212.128 493.565 211.898C493.404 211.669 493.323 211.38 493.323 211.031V205.062Z" fill="#636365"/>
<path d="M136 120C107.958 122.642 94.7672 94.2737 67 99C53.022 101.379 33.5 113 33.5 113V188.5H517V63.5C517 63.5 499.975 48.6181 486.5 45.5C456.437 38.5434 448.277 81.7763 417.5 84C388.861 86.0693 376.506 56.5465 348 60C310.926 64.4916 313.843 123.13 276.5 123.5C243.788 123.824 240.202 76.8616 207.5 76C174.725 75.1365 168.641 116.924 136 120Z" fill="url(#paint0_linear_95_1928)"/>
<path d="M517 63.5C517 63.5 499.975 48.6181 486.5 45.5C456.437 38.5434 448.277 81.7763 417.5 84C388.86 86.0693 376.506 56.5465 348 60C310.926 64.4916 313.843 123.13 276.5 123.5C243.788 123.824 240.202 76.8616 207.5 76C174.725 75.1365 168.641 116.924 136 120C107.958 122.642 94.7672 94.2737 67 99C53.022 101.379 33.5 113 33.5 113" stroke="#F26CF9" stroke-width="2"/>
<g filter="url(#filter0_d_95_1928)">
<path d="M207 24C207 17.3726 212.373 12 219 12H305C311.627 12 317 17.3726 317 24V55C317 61.6274 311.627 67 305 67H207V24Z" fill="white" shape-rendering="crispEdges"/>
<path d="M219.881 22.7273H220.932L223.403 28.7642H223.489L225.96 22.7273H227.011V30H226.188V24.4744H226.116L223.844 30H223.048L220.776 24.4744H220.705V30H219.881V22.7273ZM230.269 30.1278C229.923 30.1278 229.609 30.0627 229.328 29.9325C229.046 29.8 228.822 29.6094 228.656 29.3608C228.491 29.1098 228.408 28.8068 228.408 28.4517C228.408 28.1392 228.469 27.8859 228.593 27.6918C228.716 27.4953 228.88 27.3414 229.086 27.2301C229.292 27.1188 229.519 27.036 229.768 26.9815C230.019 26.9247 230.271 26.8797 230.524 26.8466C230.856 26.804 231.124 26.772 231.33 26.7507C231.539 26.727 231.69 26.688 231.785 26.6335C231.882 26.5791 231.931 26.4844 231.931 26.3494V26.321C231.931 25.9706 231.835 25.6984 231.643 25.5043C231.454 25.3101 231.166 25.2131 230.78 25.2131C230.38 25.2131 230.066 25.3007 229.839 25.4759C229.612 25.651 229.452 25.8381 229.36 26.0369L228.564 25.7528C228.706 25.4214 228.896 25.1634 229.132 24.9787C229.371 24.7917 229.632 24.6615 229.914 24.5881C230.198 24.5123 230.477 24.4744 230.752 24.4744C230.927 24.4744 231.128 24.4957 231.355 24.5384C231.585 24.5786 231.806 24.6626 232.019 24.7905C232.235 24.9183 232.414 25.1113 232.556 25.3693C232.698 25.6274 232.769 25.973 232.769 26.4062V30H231.931V29.2614H231.888C231.831 29.3797 231.736 29.5064 231.604 29.6413C231.471 29.7763 231.295 29.8911 231.075 29.9858C230.855 30.0805 230.586 30.1278 230.269 30.1278ZM230.396 29.375C230.728 29.375 231.007 29.3099 231.235 29.1797C231.464 29.0495 231.637 28.8814 231.753 28.6754C231.871 28.4695 231.931 28.2528 231.931 28.0256V27.2585C231.895 27.3011 231.817 27.3402 231.696 27.3757C231.578 27.4089 231.441 27.4384 231.284 27.4645C231.13 27.4882 230.98 27.5095 230.833 27.5284C230.689 27.545 230.572 27.5592 230.482 27.571C230.264 27.5994 230.06 27.6456 229.871 27.7095C229.684 27.7711 229.532 27.8646 229.416 27.9901C229.303 28.1132 229.246 28.2812 229.246 28.4943C229.246 28.7855 229.354 29.0057 229.569 29.1548C229.787 29.3016 230.063 29.375 230.396 29.375ZM234.298 30V24.5455H235.108V25.3693H235.165C235.264 25.0994 235.444 24.8804 235.705 24.7124C235.965 24.5443 236.259 24.4602 236.585 24.4602C236.647 24.4602 236.724 24.4614 236.816 24.4638C236.908 24.4661 236.978 24.4697 237.026 24.4744V25.3267C236.997 25.3196 236.932 25.3089 236.83 25.2947C236.731 25.2782 236.625 25.2699 236.514 25.2699C236.249 25.2699 236.012 25.3255 235.804 25.4368C235.598 25.5457 235.435 25.6972 235.314 25.8913C235.196 26.0831 235.136 26.3021 235.136 26.5483V30H234.298ZM243.374 22.7273V30H242.493V23.6506H242.451L240.675 24.8295V23.9347L242.493 22.7273H243.374ZM247.923 30.0994C247.454 30.0994 247.037 30.0189 246.67 29.858C246.305 29.697 246.015 29.4732 245.8 29.1868C245.586 28.898 245.47 28.563 245.452 28.1818H246.346C246.365 28.4162 246.446 28.6186 246.588 28.7891C246.73 28.9571 246.916 29.0874 247.145 29.1797C247.375 29.272 247.63 29.3182 247.909 29.3182C248.221 29.3182 248.498 29.2637 248.74 29.1548C248.981 29.0459 249.171 28.8944 249.308 28.7003C249.445 28.5062 249.514 28.2812 249.514 28.0256C249.514 27.758 249.448 27.5225 249.315 27.3189C249.183 27.1129 248.988 26.9519 248.733 26.8359C248.477 26.7199 248.165 26.6619 247.795 26.6619H247.213V25.8807H247.795C248.084 25.8807 248.337 25.8286 248.555 25.7244C248.775 25.6203 248.947 25.4735 249.07 25.2841C249.196 25.0947 249.258 24.8722 249.258 24.6165C249.258 24.3703 249.204 24.156 249.095 23.9737C248.986 23.7914 248.832 23.6494 248.633 23.5476C248.437 23.4458 248.205 23.3949 247.937 23.3949C247.686 23.3949 247.45 23.4411 247.227 23.5334C247.007 23.6233 246.827 23.7547 246.687 23.9276C246.548 24.098 246.472 24.304 246.46 24.5455H245.608C245.622 24.1643 245.737 23.8305 245.952 23.544C246.168 23.2552 246.449 23.0303 246.797 22.8693C247.148 22.7083 247.532 22.6278 247.952 22.6278C248.401 22.6278 248.787 22.719 249.109 22.9013C249.431 23.0812 249.679 23.3191 249.851 23.6151C250.024 23.911 250.111 24.2306 250.111 24.5739C250.111 24.9834 250.003 25.3326 249.787 25.6214C249.574 25.9103 249.284 26.1103 248.917 26.2216V26.2784C249.377 26.3542 249.735 26.5495 249.993 26.8643C250.251 27.1768 250.381 27.5639 250.381 28.0256C250.381 28.4209 250.273 28.776 250.057 29.0909C249.844 29.4034 249.553 29.6496 249.184 29.8295C248.814 30.0095 248.394 30.0994 247.923 30.0994ZM252.873 29.0057L252.816 29.3892C252.775 29.6591 252.714 29.9479 252.631 30.2557C252.551 30.5634 252.467 30.8535 252.379 31.1257C252.291 31.398 252.219 31.6146 252.162 31.7756H251.523C251.554 31.6241 251.594 31.424 251.644 31.1754C251.694 30.9268 251.743 30.6487 251.793 30.3409C251.845 30.0355 251.888 29.723 251.921 29.4034L251.963 29.0057H252.873ZM257.224 30V29.3608L259.624 26.733C259.906 26.4252 260.138 26.1577 260.32 25.9304C260.502 25.7008 260.637 25.4853 260.725 25.2841C260.815 25.0805 260.86 24.8674 260.86 24.6449C260.86 24.3892 260.798 24.1679 260.675 23.9808C260.555 23.7938 260.389 23.6494 260.178 23.5476C259.967 23.4458 259.731 23.3949 259.468 23.3949C259.189 23.3949 258.945 23.4529 258.736 23.5689C258.53 23.6825 258.371 23.8423 258.257 24.0483C258.146 24.2543 258.09 24.4957 258.09 24.7727H257.252C257.252 24.3466 257.35 23.9725 257.547 23.6506C257.743 23.3286 258.011 23.0777 258.349 22.8977C258.69 22.7178 259.073 22.6278 259.496 22.6278C259.922 22.6278 260.3 22.7178 260.629 22.8977C260.958 23.0777 261.216 23.3203 261.403 23.6257C261.59 23.9311 261.684 24.2708 261.684 24.6449C261.684 24.9124 261.635 25.174 261.538 25.4297C261.443 25.683 261.278 25.9659 261.041 26.2784C260.807 26.5885 260.481 26.9673 260.064 27.4148L258.431 29.1619V29.2188H261.812V30H257.224ZM265.65 30.0994C265.115 30.0994 264.66 29.9538 264.283 29.6626C263.907 29.3691 263.619 28.9441 263.42 28.3878C263.221 27.8291 263.122 27.1544 263.122 26.3636C263.122 25.5777 263.221 24.9065 263.42 24.3501C263.622 23.7914 263.91 23.3653 264.287 23.0717C264.666 22.7758 265.12 22.6278 265.65 22.6278C266.181 22.6278 266.634 22.7758 267.01 23.0717C267.389 23.3653 267.678 23.7914 267.877 24.3501C268.078 24.9065 268.179 25.5777 268.179 26.3636C268.179 27.1544 268.079 27.8291 267.881 28.3878C267.682 28.9441 267.394 29.3691 267.018 29.6626C266.641 29.9538 266.185 30.0994 265.65 30.0994ZM265.65 29.3182C266.181 29.3182 266.593 29.0625 266.886 28.5511C267.18 28.0398 267.327 27.3106 267.327 26.3636C267.327 25.7339 267.259 25.1977 267.124 24.755C266.992 24.3123 266.8 23.9749 266.549 23.7429C266.3 23.5109 266.001 23.3949 265.65 23.3949C265.125 23.3949 264.714 23.6541 264.418 24.1726C264.122 24.6887 263.974 25.419 263.974 26.3636C263.974 26.9934 264.041 27.5284 264.173 27.9688C264.306 28.4091 264.496 28.7441 264.745 28.9737C264.996 29.2034 265.298 29.3182 265.65 29.3182ZM269.528 30V29.3608L271.929 26.733C272.211 26.4252 272.443 26.1577 272.625 25.9304C272.807 25.7008 272.942 25.4853 273.03 25.2841C273.12 25.0805 273.165 24.8674 273.165 24.6449C273.165 24.3892 273.103 24.1679 272.98 23.9808C272.859 23.7938 272.693 23.6494 272.483 23.5476C272.272 23.4458 272.035 23.3949 271.773 23.3949C271.493 23.3949 271.249 23.4529 271.041 23.5689C270.835 23.6825 270.675 23.8423 270.562 24.0483C270.45 24.2543 270.395 24.4957 270.395 24.7727H269.557C269.557 24.3466 269.655 23.9725 269.851 23.6506C270.048 23.3286 270.315 23.0777 270.654 22.8977C270.995 22.7178 271.377 22.6278 271.801 22.6278C272.227 22.6278 272.605 22.7178 272.934 22.8977C273.263 23.0777 273.521 23.3203 273.708 23.6257C273.895 23.9311 273.988 24.2708 273.988 24.6449C273.988 24.9124 273.94 25.174 273.843 25.4297C273.748 25.683 273.582 25.9659 273.346 26.2784C273.111 26.5885 272.786 26.9673 272.369 27.4148L270.736 29.1619V29.2188H274.116V30H269.528ZM277.898 22.6278C278.197 22.6302 278.495 22.687 278.793 22.7983C279.091 22.9096 279.364 23.0942 279.61 23.3523C279.856 23.608 280.054 23.9571 280.203 24.3999C280.352 24.8426 280.427 25.3977 280.427 26.0653C280.427 26.7116 280.365 27.2857 280.242 27.7876C280.121 28.2872 279.946 28.7086 279.716 29.0518C279.489 29.3951 279.212 29.6555 278.885 29.8331C278.561 30.0107 278.194 30.0994 277.785 30.0994C277.377 30.0994 277.014 30.0189 276.694 29.858C276.377 29.6946 276.117 29.4685 275.913 29.1797C275.712 28.8885 275.583 28.5511 275.526 28.1676H276.393C276.471 28.5014 276.626 28.7772 276.858 28.995C277.092 29.2105 277.401 29.3182 277.785 29.3182C278.346 29.3182 278.788 29.0732 279.113 28.5831C279.439 28.093 279.603 27.4006 279.603 26.5057H279.546C279.413 26.7045 279.256 26.8762 279.074 27.0206C278.891 27.165 278.689 27.2763 278.466 27.3544C278.244 27.4325 278.007 27.4716 277.756 27.4716C277.34 27.4716 276.957 27.3686 276.609 27.1626C276.264 26.9543 275.987 26.669 275.778 26.3068C275.572 25.9422 275.469 25.5256 275.469 25.0568C275.469 24.6117 275.569 24.2045 275.768 23.8352C275.969 23.4635 276.251 23.1676 276.613 22.9474C276.977 22.7273 277.406 22.6207 277.898 22.6278ZM277.898 23.4091C277.6 23.4091 277.331 23.4837 277.092 23.6328C276.855 23.7796 276.667 23.9785 276.528 24.2294C276.39 24.478 276.322 24.7538 276.322 25.0568C276.322 25.3598 276.388 25.6357 276.52 25.8842C276.655 26.1304 276.839 26.3269 277.071 26.4737C277.305 26.6181 277.572 26.6903 277.87 26.6903C278.095 26.6903 278.304 26.6465 278.498 26.5589C278.693 26.469 278.862 26.3471 279.006 26.1932C279.153 26.0369 279.268 25.8606 279.351 25.6641C279.434 25.4652 279.475 25.258 279.475 25.0426C279.475 24.7585 279.406 24.4922 279.269 24.2436C279.134 23.995 278.947 23.7938 278.708 23.6399C278.471 23.486 278.201 23.4091 277.898 23.4091Z" fill="#636365"/>
<path d="M219 37H271" stroke="#EDEDED" stroke-linecap="round"/>
<path d="M224.046 44.8182V55H222.202V46.6129H222.142L219.761 48.1342V46.4439L222.291 44.8182H224.046ZM228.204 53.608L228.139 54.1548C228.093 54.5724 228.01 54.9967 227.89 55.4276C227.774 55.8617 227.652 56.2611 227.523 56.6257C227.393 56.9903 227.289 57.277 227.209 57.4858H225.996C226.043 57.2836 226.106 57.0085 226.185 56.6605C226.268 56.3125 226.348 55.9214 226.424 55.4872C226.5 55.053 226.551 54.6122 226.578 54.1648L226.613 53.608H228.204ZM233.512 55.1392C232.796 55.1392 232.16 55.0166 231.603 54.7713C231.049 54.526 230.612 54.1847 230.29 53.7472C229.969 53.3097 229.798 52.8042 229.778 52.2308H231.648C231.664 52.5059 231.755 52.7462 231.921 52.9517C232.087 53.1539 232.307 53.3113 232.582 53.424C232.857 53.5367 233.166 53.593 233.507 53.593C233.872 53.593 234.195 53.5301 234.477 53.4041C234.758 53.2749 234.979 53.0959 235.138 52.8672C235.297 52.6385 235.375 52.375 235.371 52.0767C235.375 51.7685 235.295 51.4967 235.133 51.2614C234.97 51.026 234.735 50.8421 234.427 50.7095C234.122 50.5769 233.754 50.5107 233.323 50.5107H232.423V49.0888H233.323C233.678 49.0888 233.988 49.0275 234.253 48.9048C234.521 48.7822 234.732 48.6098 234.884 48.3878C235.037 48.1624 235.111 47.9022 235.108 47.6072C235.111 47.3189 235.047 47.0687 234.914 46.8565C234.785 46.6411 234.601 46.4737 234.362 46.3544C234.127 46.2351 233.85 46.1754 233.532 46.1754C233.22 46.1754 232.932 46.2318 232.667 46.3445C232.402 46.4571 232.188 46.6179 232.026 46.8267C231.863 47.0322 231.777 47.2775 231.767 47.5625H229.992C230.005 46.9924 230.17 46.492 230.484 46.0611C230.803 45.6269 231.227 45.2888 231.757 45.0469C232.287 44.8016 232.882 44.679 233.542 44.679C234.221 44.679 234.811 44.8066 235.312 45.0618C235.816 45.3137 236.205 45.6534 236.48 46.081C236.755 46.5085 236.893 46.9808 236.893 47.4979C236.896 48.0713 236.727 48.5518 236.386 48.9396C236.048 49.3274 235.603 49.581 235.053 49.7003V49.7798C235.769 49.8793 236.318 50.1444 236.699 50.5753C237.083 51.0028 237.274 51.5348 237.271 52.1712C237.271 52.7412 237.108 53.2517 236.783 53.7024C236.462 54.1499 236.018 54.5012 235.451 54.7564C234.888 55.0116 234.241 55.1392 233.512 55.1392ZM242.512 44.679C242.999 44.6823 243.473 44.7685 243.934 44.9375C244.398 45.1032 244.815 45.375 245.187 45.7528C245.558 46.1274 245.853 46.6295 246.072 47.2592C246.29 47.889 246.4 48.6679 246.4 49.5959C246.403 50.4709 246.31 51.2531 246.121 51.9425C245.936 52.6286 245.669 53.2086 245.321 53.6825C244.973 54.1565 244.554 54.5178 244.063 54.7663C243.573 55.0149 243.021 55.1392 242.407 55.1392C241.765 55.1392 241.194 55.0133 240.697 54.7614C240.203 54.5095 239.804 54.1648 239.499 53.7273C239.194 53.2898 239.007 52.7893 238.937 52.2259H240.752C240.845 52.6302 241.034 52.9517 241.319 53.1903C241.607 53.4257 241.97 53.5433 242.407 53.5433C243.113 53.5433 243.657 53.2367 244.038 52.6236C244.419 52.0104 244.61 51.1586 244.61 50.0682H244.54C244.378 50.3598 244.167 50.6117 243.909 50.8239C243.65 51.0327 243.357 51.1934 243.029 51.3061C242.704 51.4188 242.359 51.4751 241.995 51.4751C241.398 51.4751 240.861 51.3326 240.384 51.0476C239.91 50.7625 239.534 50.3714 239.256 49.8743C238.98 49.3771 238.841 48.8087 238.838 48.169C238.838 47.5062 238.99 46.9112 239.295 46.3842C239.604 45.8539 240.033 45.4363 240.583 45.1314C241.133 44.8232 241.776 44.6723 242.512 44.679ZM242.517 46.1705C242.159 46.1705 241.836 46.2583 241.547 46.4339C241.262 46.6063 241.037 46.8416 240.871 47.1399C240.709 47.4349 240.628 47.7647 240.628 48.1293C240.631 48.4905 240.712 48.8187 240.871 49.1136C241.034 49.4086 241.254 49.6423 241.532 49.8146C241.814 49.987 242.136 50.0732 242.497 50.0732C242.765 50.0732 243.016 50.0218 243.248 49.919C243.48 49.8163 243.682 49.6738 243.854 49.4915C244.03 49.3059 244.166 49.0954 244.262 48.8601C244.361 48.6248 244.409 48.3762 244.406 48.1143C244.406 47.7663 244.323 47.4448 244.157 47.1499C243.995 46.8549 243.771 46.6179 243.486 46.4389C243.205 46.2599 242.881 46.1705 242.517 46.1705ZM251.784 55.1392C251.297 55.1359 250.821 55.0514 250.357 54.8857C249.893 54.7166 249.475 54.4432 249.104 54.0653C248.733 53.6842 248.438 53.1787 248.219 52.549C248.001 51.916 247.893 51.1321 247.896 50.1974C247.896 49.3258 247.989 48.5485 248.175 47.8658C248.36 47.183 248.627 46.6063 248.975 46.1357C249.323 45.6617 249.742 45.3004 250.233 45.0518C250.727 44.8033 251.278 44.679 251.888 44.679C252.528 44.679 253.095 44.8049 253.589 45.0568C254.086 45.3087 254.487 45.6534 254.792 46.0909C255.097 46.5251 255.286 47.0156 255.358 47.5625H253.544C253.451 47.1714 253.26 46.8598 252.972 46.6278C252.687 46.3925 252.326 46.2749 251.888 46.2749C251.182 46.2749 250.639 46.5814 250.258 47.1946C249.88 47.8078 249.689 48.6496 249.686 49.7202H249.756C249.918 49.4285 250.128 49.1783 250.387 48.9695C250.645 48.7607 250.937 48.5999 251.262 48.4872C251.59 48.3712 251.936 48.3132 252.301 48.3132C252.898 48.3132 253.433 48.4557 253.907 48.7408C254.384 49.0258 254.762 49.4186 255.04 49.919C255.319 50.4162 255.456 50.9863 255.453 51.6293C255.456 52.2988 255.304 52.9003 254.996 53.4339C254.687 53.9643 254.258 54.3819 253.708 54.6868C253.158 54.9917 252.516 55.1425 251.784 55.1392ZM251.774 53.6477C252.135 53.6477 252.458 53.5599 252.743 53.3842C253.028 53.2086 253.254 52.9716 253.42 52.6733C253.585 52.375 253.666 52.0402 253.663 51.669C253.666 51.3045 253.587 50.9747 253.425 50.6797C253.265 50.3847 253.045 50.151 252.763 49.9787C252.482 49.8063 252.16 49.7202 251.799 49.7202C251.53 49.7202 251.28 49.7715 251.048 49.8743C250.816 49.977 250.614 50.1196 250.442 50.3018C250.269 50.4808 250.133 50.6896 250.034 50.9283C249.938 51.1636 249.888 51.4155 249.885 51.6839C249.888 52.0386 249.971 52.3651 250.133 52.6634C250.296 52.9616 250.519 53.2003 250.805 53.3793C251.09 53.5582 251.413 53.6477 251.774 53.6477Z" fill="#1E1E20"/>
<path d="M261.881 55V47.7273H264.423C264.93 47.7273 265.348 47.8149 265.677 47.9901C266.006 48.1629 266.251 48.3961 266.412 48.6896C266.573 48.9808 266.653 49.304 266.653 49.6591C266.653 49.9716 266.598 50.2296 266.487 50.4332C266.378 50.6368 266.233 50.7978 266.053 50.9162C265.876 51.0346 265.683 51.1222 265.474 51.179V51.25C265.697 51.2642 265.921 51.3423 266.146 51.4844C266.371 51.6264 266.559 51.83 266.71 52.0952C266.862 52.3603 266.938 52.6847 266.938 53.0682C266.938 53.4328 266.855 53.7607 266.689 54.0518C266.523 54.343 266.262 54.5739 265.904 54.7443C265.547 54.9148 265.081 55 264.509 55H261.881ZM262.761 54.2188H264.509C265.084 54.2188 265.492 54.1075 265.734 53.8849C265.978 53.66 266.099 53.3878 266.099 53.0682C266.099 52.822 266.037 52.5947 265.911 52.3864C265.786 52.1757 265.607 52.0076 265.375 51.8821C265.143 51.7543 264.868 51.6903 264.551 51.6903H262.761V54.2188ZM262.761 50.9233H264.395C264.66 50.9233 264.899 50.8712 265.112 50.767C265.328 50.6629 265.498 50.5161 265.624 50.3267C265.751 50.1373 265.815 49.9148 265.815 49.6591C265.815 49.3395 265.704 49.0684 265.482 48.8459C265.259 48.621 264.906 48.5085 264.423 48.5085H262.761V50.9233ZM270.487 55.1136C269.994 55.1136 269.562 54.9964 269.191 54.7621C268.821 54.5277 268.533 54.1998 268.324 53.7784C268.118 53.357 268.015 52.8646 268.015 52.3011C268.015 51.733 268.118 51.237 268.324 50.8132C268.533 50.3894 268.821 50.0604 269.191 49.826C269.562 49.5916 269.994 49.4744 270.487 49.4744C270.979 49.4744 271.41 49.5916 271.779 49.826C272.151 50.0604 272.44 50.3894 272.646 50.8132C272.854 51.237 272.958 51.733 272.958 52.3011C272.958 52.8646 272.854 53.357 272.646 53.7784C272.44 54.1998 272.151 54.5277 271.779 54.7621C271.41 54.9964 270.979 55.1136 270.487 55.1136ZM270.487 54.3608C270.861 54.3608 271.169 54.2649 271.41 54.0732C271.652 53.8814 271.83 53.6293 271.946 53.3168C272.062 53.0043 272.12 52.6657 272.12 52.3011C272.12 51.9366 272.062 51.5968 271.946 51.282C271.83 50.9671 271.652 50.7126 271.41 50.5185C271.169 50.3243 270.861 50.2273 270.487 50.2273C270.113 50.2273 269.805 50.3243 269.564 50.5185C269.322 50.7126 269.143 50.9671 269.027 51.282C268.911 51.5968 268.853 51.9366 268.853 52.3011C268.853 52.6657 268.911 53.0043 269.027 53.3168C269.143 53.6293 269.322 53.8814 269.564 54.0732C269.805 54.2649 270.113 54.3608 270.487 54.3608ZM276.454 55.1136C275.961 55.1136 275.529 54.9964 275.157 54.7621C274.788 54.5277 274.499 54.1998 274.291 53.7784C274.085 53.357 273.982 52.8646 273.982 52.3011C273.982 51.733 274.085 51.237 274.291 50.8132C274.499 50.3894 274.788 50.0604 275.157 49.826C275.529 49.5916 275.961 49.4744 276.454 49.4744C276.946 49.4744 277.377 49.5916 277.746 49.826C278.118 50.0604 278.407 50.3894 278.613 50.8132C278.821 51.237 278.925 51.733 278.925 52.3011C278.925 52.8646 278.821 53.357 278.613 53.7784C278.407 54.1998 278.118 54.5277 277.746 54.7621C277.377 54.9964 276.946 55.1136 276.454 55.1136ZM276.454 54.3608C276.828 54.3608 277.135 54.2649 277.377 54.0732C277.618 53.8814 277.797 53.6293 277.913 53.3168C278.029 53.0043 278.087 52.6657 278.087 52.3011C278.087 51.9366 278.029 51.5968 277.913 51.282C277.797 50.9671 277.618 50.7126 277.377 50.5185C277.135 50.3243 276.828 50.2273 276.454 50.2273C276.08 50.2273 275.772 50.3243 275.53 50.5185C275.289 50.7126 275.11 50.9671 274.994 51.282C274.878 51.5968 274.82 51.9366 274.82 52.3011C274.82 52.6657 274.878 53.0043 274.994 53.3168C275.11 53.6293 275.289 53.8814 275.53 54.0732C275.772 54.2649 276.08 54.3608 276.454 54.3608ZM280.986 53.0114L280.972 51.9744H281.142L283.528 49.5455H284.565L282.023 52.1165H281.952L280.986 53.0114ZM280.205 55V47.7273H281.043V55H280.205ZM283.67 55L281.54 52.3011L282.136 51.7188L284.736 55H283.67ZM285.644 55V49.5455H286.482V55H285.644ZM286.07 48.6364C285.907 48.6364 285.766 48.5807 285.648 48.4695C285.532 48.3582 285.474 48.2244 285.474 48.0682C285.474 47.9119 285.532 47.7782 285.648 47.6669C285.766 47.5556 285.907 47.5 286.07 47.5C286.233 47.5 286.373 47.5556 286.489 47.6669C286.608 47.7782 286.667 47.9119 286.667 48.0682C286.667 48.2244 286.608 48.3582 286.489 48.4695C286.373 48.5807 286.233 48.6364 286.07 48.6364ZM288.855 51.7188V55H288.017V49.5455H288.827V50.3977H288.898C289.026 50.1207 289.22 49.8982 289.48 49.7301C289.741 49.5597 290.077 49.4744 290.489 49.4744C290.858 49.4744 291.181 49.5502 291.458 49.7017C291.735 49.8509 291.951 50.0781 292.104 50.3835C292.258 50.6866 292.335 51.0701 292.335 51.5341V55H291.497V51.5909C291.497 51.1624 291.386 50.8286 291.163 50.5895C290.941 50.348 290.635 50.2273 290.247 50.2273C289.98 50.2273 289.741 50.2853 289.53 50.4013C289.321 50.5173 289.157 50.6866 289.036 50.9091C288.915 51.1316 288.855 51.4015 288.855 51.7188ZM296.068 57.1591C295.664 57.1591 295.316 57.107 295.024 57.0028C294.733 56.901 294.49 56.7661 294.296 56.598C294.105 56.4323 293.952 56.2547 293.838 56.0653L294.506 55.5966C294.582 55.696 294.677 55.8097 294.794 55.9375C294.91 56.0677 295.068 56.1802 295.269 56.2749C295.473 56.3719 295.739 56.4205 296.068 56.4205C296.509 56.4205 296.872 56.3139 297.159 56.1009C297.445 55.8878 297.588 55.554 297.588 55.0994V53.9915H297.517C297.456 54.0909 297.368 54.214 297.254 54.3608C297.143 54.5052 296.982 54.6342 296.771 54.7479C296.563 54.8591 296.281 54.9148 295.926 54.9148C295.486 54.9148 295.091 54.8106 294.74 54.6023C294.392 54.3939 294.116 54.0909 293.913 53.6932C293.712 53.2955 293.611 52.8125 293.611 52.2443C293.611 51.6856 293.709 51.1991 293.906 50.7848C294.102 50.3681 294.376 50.0462 294.726 49.8189C295.076 49.5893 295.481 49.4744 295.941 49.4744C296.296 49.4744 296.577 49.5336 296.786 49.652C296.996 49.768 297.157 49.9006 297.269 50.0497C297.382 50.1965 297.47 50.3172 297.531 50.4119H297.617V49.5455H298.426V55.1562C298.426 55.625 298.32 56.0062 298.107 56.2997C297.896 56.5956 297.612 56.8123 297.254 56.9496C296.899 57.0893 296.504 57.1591 296.068 57.1591ZM296.04 54.1619C296.376 54.1619 296.66 54.085 296.892 53.9311C297.124 53.7772 297.301 53.5559 297.421 53.267C297.542 52.9782 297.602 52.6326 297.602 52.2301C297.602 51.8371 297.543 51.4903 297.425 51.1896C297.307 50.889 297.131 50.6534 296.899 50.483C296.667 50.3125 296.381 50.2273 296.04 50.2273C295.685 50.2273 295.389 50.3172 295.152 50.4972C294.918 50.6771 294.741 50.9186 294.623 51.2216C294.507 51.5246 294.449 51.8608 294.449 52.2301C294.449 52.6089 294.508 52.9439 294.627 53.2351C294.747 53.5239 294.925 53.7512 295.159 53.9169C295.396 54.0803 295.69 54.1619 296.04 54.1619ZM303.824 50.767L303.071 50.9801C303.024 50.8546 302.954 50.7327 302.862 50.6143C302.772 50.4936 302.649 50.3942 302.492 50.3161C302.336 50.2379 302.136 50.1989 301.892 50.1989C301.558 50.1989 301.28 50.2758 301.058 50.4297C300.838 50.5812 300.727 50.7741 300.727 51.0085C300.727 51.2169 300.803 51.3814 300.955 51.5021C301.106 51.6229 301.343 51.7235 301.665 51.804L302.475 52.0028C302.962 52.1212 303.326 52.3023 303.565 52.5462C303.804 52.7876 303.923 53.099 303.923 53.4801C303.923 53.7926 303.834 54.072 303.654 54.3182C303.476 54.5644 303.227 54.7585 302.908 54.9006C302.588 55.0426 302.217 55.1136 301.793 55.1136C301.236 55.1136 300.776 54.9929 300.411 54.7514C300.047 54.5099 299.816 54.1572 299.719 53.6932L300.514 53.4943C300.59 53.7879 300.733 54.008 300.944 54.1548C301.157 54.3016 301.435 54.375 301.779 54.375C302.169 54.375 302.479 54.2921 302.709 54.1264C302.941 53.9583 303.057 53.7571 303.057 53.5227C303.057 53.3333 302.991 53.1747 302.858 53.0469C302.726 52.9167 302.522 52.8196 302.247 52.7557L301.338 52.5426C300.839 52.4242 300.472 52.2408 300.237 51.9922C300.005 51.7412 299.889 51.4276 299.889 51.0511C299.889 50.7434 299.976 50.4711 300.149 50.2344C300.324 49.9976 300.562 49.8118 300.862 49.6768C301.165 49.5419 301.509 49.4744 301.892 49.4744C302.432 49.4744 302.856 49.5928 303.164 49.8295C303.474 50.0663 303.694 50.3788 303.824 50.767Z" fill="#636365"/>
</g>
<circle cx="207" cy="76" r="5" fill="#F26CF9"/>
<path d="M207 81.5V187.5" stroke="#C3C3C4" stroke-dasharray="6 6"/>
<defs>
<filter id="filter0_d_95_1928" x="191" y="0" width="142" height="87" filterUnits="userSpaceOnUse" color-interpolation-filters="sRGB">
<feFlood flood-opacity="0" result="BackgroundImageFix"/>
<feColorMatrix in="SourceAlpha" type="matrix" values="0 0 0 0 0 0 0 0 0 0 0 0 0 0 0 0 0 0 127 0" result="hardAlpha"/>
<feOffset dy="4"/>
<feGaussianBlur stdDeviation="8"/>
<feComposite in2="hardAlpha" operator="out"/>
<feColorMatrix type="matrix" values="0 0 0 0 0.14902 0 0 0 0 0.172549 0 0 0 0 0.290196 0 0 0 0.1 0"/>
<feBlend mode="normal" in2="BackgroundImageFix" result="effect1_dropShadow_95_1928"/>
<feBlend mode="normal" in="SourceGraphic" in2="effect1_dropShadow_95_1928" result="shape"/>
</filter>
<linearGradient id="paint0_linear_95_1928" x1="275.25" y1="44.7432" x2="275.25" y2="188.5" gradientUnits="userSpaceOnUse">
<stop stop-color="#EEEFFF"/>
<stop offset="1" stop-color="#EEEFFF" stop-opacity="0"/>
</linearGradient>
</defs>
</svg>
