<svg width="45" height="44" viewBox="0 0 45 44" fill="none" xmlns="http://www.w3.org/2000/svg">
<rect x="0.833252" width="44" height="44" rx="22" fill="#F26CF9"/>
<path d="M26.7572 19.4511C26.8211 19.5149 26.8718 19.5908 26.9064 19.6742C26.941 19.7577 26.9588 19.8472 26.9588 19.9375C26.9588 20.0278 26.941 20.1173 26.9064 20.2008C26.8718 20.2842 26.8211 20.3601 26.7572 20.4239L21.9447 25.2364C21.8808 25.3003 21.805 25.351 21.7215 25.3856C21.6381 25.4202 21.5486 25.438 21.4583 25.438C21.3679 25.438 21.2784 25.4202 21.195 25.3856C21.1115 25.351 21.0357 25.3003 20.9718 25.2364L18.9093 23.1739C18.7803 23.0449 18.7079 22.8699 18.7079 22.6875C18.7079 22.5051 18.7803 22.3301 18.9093 22.2011C19.0384 22.0721 19.2133 21.9996 19.3958 21.9996C19.5782 21.9996 19.7532 22.0721 19.8822 22.2011L21.4583 23.778L25.7843 19.4511C25.8482 19.3872 25.924 19.3365 26.0075 19.3019C26.0909 19.2673 26.1804 19.2495 26.2708 19.2495C26.3611 19.2495 26.4506 19.2673 26.534 19.3019C26.6175 19.3365 26.6933 19.3872 26.7572 19.4511ZM31.7708 22C31.7708 23.7677 31.2466 25.4956 30.2645 26.9654C29.2825 28.4352 27.8866 29.5807 26.2535 30.2572C24.6204 30.9336 22.8233 31.1106 21.0896 30.7658C19.3559 30.4209 17.7634 29.5697 16.5135 28.3198C15.2636 27.0698 14.4123 25.4773 14.0675 23.7436C13.7226 22.0099 13.8996 20.2129 14.5761 18.5798C15.2525 16.9467 16.3981 15.5508 17.8678 14.5687C19.3376 13.5867 21.0656 13.0625 22.8333 13.0625C25.2029 13.065 27.4747 14.0074 29.1503 15.683C30.8258 17.3586 31.7683 19.6304 31.7708 22ZM30.3958 22C30.3958 20.5043 29.9522 19.0421 29.1212 17.7985C28.2903 16.5549 27.1092 15.5855 25.7273 15.0132C24.3454 14.4408 22.8249 14.291 21.3579 14.5828C19.8909 14.8746 18.5434 15.5949 17.4858 16.6525C16.4281 17.7101 15.7079 19.0576 15.4161 20.5246C15.1243 21.9916 15.274 23.5122 15.8464 24.894C16.4188 26.2759 17.3881 27.457 18.6318 28.288C19.8754 29.119 21.3375 29.5625 22.8333 29.5625C24.8383 29.5602 26.7605 28.7627 28.1782 27.345C29.596 25.9272 30.3935 24.005 30.3958 22Z" fill="white"/>
</svg>
