<svg width="36" height="36" viewBox="0 0 36 36" fill="none" xmlns="http://www.w3.org/2000/svg">
<rect width="36" height="36" rx="18" fill="#37437D"/>
<path fill-rule="evenodd" clip-rule="evenodd" d="M11.25 21.0938C11.25 20.7831 11.5018 20.5312 11.8125 20.5312H18.5625C18.8732 20.5312 19.125 20.7831 19.125 21.0938C19.125 21.4044 18.8732 21.6562 18.5625 21.6562H11.8125C11.5018 21.6562 11.25 21.4044 11.25 21.0938Z" fill="white"/>
<path fill-rule="evenodd" clip-rule="evenodd" d="M20.25 21.0938C20.25 20.7831 20.5018 20.5312 20.8125 20.5312H24.1875C24.4982 20.5312 24.75 20.7831 24.75 21.0938C24.75 21.4044 24.4982 21.6562 24.1875 21.6562H20.8125C20.5018 21.6562 20.25 21.4044 20.25 21.0938Z" fill="white"/>
<path fill-rule="evenodd" clip-rule="evenodd" d="M11.25 14.9062C11.25 14.5956 11.5018 14.3438 11.8125 14.3438H14.0625C14.3732 14.3438 14.625 14.5956 14.625 14.9062C14.625 15.2169 14.3732 15.4688 14.0625 15.4688H11.8125C11.5018 15.4688 11.25 15.2169 11.25 14.9062Z" fill="white"/>
<path fill-rule="evenodd" clip-rule="evenodd" d="M15.75 14.9062C15.75 14.5956 16.0018 14.3438 16.3125 14.3438H24.1875C24.4982 14.3438 24.75 14.5956 24.75 14.9062C24.75 15.2169 24.4982 15.4688 24.1875 15.4688H16.3125C16.0018 15.4688 15.75 15.2169 15.75 14.9062Z" fill="white"/>
<path fill-rule="evenodd" clip-rule="evenodd" d="M16.3125 12.6562C16.6232 12.6562 16.875 12.9081 16.875 13.2188V16.5938C16.875 16.9044 16.6232 17.1562 16.3125 17.1562C16.0018 17.1562 15.75 16.9044 15.75 16.5938V13.2188C15.75 12.9081 16.0018 12.6562 16.3125 12.6562Z" fill="white"/>
<path fill-rule="evenodd" clip-rule="evenodd" d="M20.8125 18.8438C21.1232 18.8438 21.375 19.0956 21.375 19.4062V22.7812C21.375 23.0919 21.1232 23.3438 20.8125 23.3438C20.5018 23.3438 20.25 23.0919 20.25 22.7812V19.4062C20.25 19.0956 20.5018 18.8438 20.8125 18.8438Z" fill="white"/>
</svg>
