<svg width="36" height="36" viewBox="0 0 36 36" fill="none" xmlns="http://www.w3.org/2000/svg">
<rect width="36" height="36" rx="18" fill="#37437D"/>
<path d="M23.0625 11.8125H12.9375C12.6391 11.8125 12.353 11.931 12.142 12.142C11.931 12.353 11.8125 12.6391 11.8125 12.9375V23.0625C11.8125 23.3609 11.931 23.647 12.142 23.858C12.353 24.069 12.6391 24.1875 12.9375 24.1875H23.0625C23.3609 24.1875 23.647 24.069 23.858 23.858C24.069 23.647 24.1875 23.3609 24.1875 23.0625V12.9375C24.1875 12.6391 24.069 12.353 23.858 12.142C23.647 11.931 23.3609 11.8125 23.0625 11.8125ZM23.0625 17.4375H18.5625V12.9375H23.0625V17.4375ZM17.4375 12.9375V17.4375H12.9375V12.9375H17.4375ZM12.9375 18.5625H17.4375V23.0625H12.9375V18.5625ZM23.0625 23.0625H18.5625V18.5625H23.0625V23.0625Z" fill="white"/>
</svg>
