<svg width="36" height="36" viewBox="0 0 36 36" fill="none" xmlns="http://www.w3.org/2000/svg">
<rect width="36" height="36" rx="18" fill="#EEEFFF"/>
<path d="M24.75 18C24.75 18.1492 24.6907 18.2923 24.5852 18.3977C24.4798 18.5032 24.3367 18.5625 24.1875 18.5625H11.8125C11.6633 18.5625 11.5202 18.5032 11.4148 18.3977C11.3093 18.2923 11.25 18.1492 11.25 18C11.25 17.8508 11.3093 17.7077 11.4148 17.6023C11.5202 17.4968 11.6633 17.4375 11.8125 17.4375H24.1875C24.3367 17.4375 24.4798 17.4968 24.5852 17.6023C24.6907 17.7077 24.75 17.8508 24.75 18ZM11.8125 14.0625H24.1875C24.3367 14.0625 24.4798 14.0032 24.5852 13.8977C24.6907 13.7923 24.75 13.6492 24.75 13.5C24.75 13.3508 24.6907 13.2077 24.5852 13.1023C24.4798 12.9968 24.3367 12.9375 24.1875 12.9375H11.8125C11.6633 12.9375 11.5202 12.9968 11.4148 13.1023C11.3093 13.2077 11.25 13.3508 11.25 13.5C11.25 13.6492 11.3093 13.7923 11.4148 13.8977C11.5202 14.0032 11.6633 14.0625 11.8125 14.0625ZM24.1875 21.9375H11.8125C11.6633 21.9375 11.5202 21.9968 11.4148 22.1023C11.3093 22.2077 11.25 22.3508 11.25 22.5C11.25 22.6492 11.3093 22.7923 11.4148 22.8977C11.5202 23.0032 11.6633 23.0625 11.8125 23.0625H24.1875C24.3367 23.0625 24.4798 23.0032 24.5852 22.8977C24.6907 22.7923 24.75 22.6492 24.75 22.5C24.75 22.3508 24.6907 22.2077 24.5852 22.1023C24.4798 21.9968 24.3367 21.9375 24.1875 21.9375Z" fill="#636365"/>
</svg>
